<?xml version="1.0" encoding="UTF-8" standalone="no"?>
<!DOCTYPE score-partwise PUBLIC "-//Recordare//DTD MusicXML 3.1 Partwise//EN" "http://www.musicxml.org/dtds/partwise.dtd">
<score-partwise version="3.1">
  <work>
    <work-title>Harlan Morning</work-title>
  </work>
  <identification>
    <creator type="composer">Gerald T. Ellison</creator>
    <rights>Original composition. For Lakemont College audition portfolio.</rights>
    <encoding>
      <software>notation software</software>
      <encoding-date>2027-01-30</encoding-date>
    </encoding>
  </identification>
  <defaults>
    <scaling>
      <millimeters>7.0</millimeters>
      <tenths>40</tenths>
    </scaling>
  </defaults>
  <credit page="1">
    <credit-type>title</credit-type>
    <credit-words justify="center" valign="top" font-size="22">Harlan Morning</credit-words>
  </credit>
  <credit page="1">
    <credit-type>subtitle</credit-type>
    <credit-words justify="center" valign="top" font-size="12">Waltz for fiddle</credit-words>
  </credit>
  <credit page="1">
    <credit-type>composer</credit-type>
    <credit-words justify="right" valign="top" font-size="11">Gerald T. Ellison</credit-words>
  </credit>
  <part-list>
    <score-part id="P1">
      <part-name>Fiddle</part-name>
      <part-abbreviation>Fdl.</part-abbreviation>
      <score-instrument id="P1-I1">
        <instrument-name>Violin</instrument-name>
      </score-instrument>
    </score-part>
  </part-list>
  <part id="P1">
    <measure number="1">
      <attributes>
        <divisions>2</divisions>
        <key><fifths>2</fifths><mode>major</mode></key>
        <time><beats>3</beats><beat-type>4</beat-type></time>
        <clef><sign>G</sign><line>2</line></clef>
      </attributes>
      <direction placement="above">
        <direction-type>
          <metronome><beat-unit>quarter</beat-unit><per-minute>132</per-minute></metronome>
        </direction-type>
        <direction-type>
          <words>Gently, in time</words>
        </direction-type>
      </direction>
      <note><pitch><step>A</step><octave>4</octave></pitch><duration>2</duration><type>quarter</type></note>
      <note><pitch><step>F</step><alter>1</alter><octave>4</octave></pitch><duration>2</duration><type>quarter</type></note>
      <note><pitch><step>A</step><octave>4</octave></pitch><duration>2</duration><type>quarter</type></note>
    </measure>
    <measure number="2">
      <note><pitch><step>B</step><octave>4</octave></pitch><duration>4</duration><type>half</type></note>
      <note><pitch><step>A</step><octave>4</octave></pitch><duration>2</duration><type>quarter</type></note>
    </measure>
    <measure number="3">
      <note><pitch><step>G</step><octave>4</octave></pitch><duration>2</duration><type>quarter</type></note>
      <note><pitch><step>F</step><alter>1</alter><octave>4</octave></pitch><duration>2</duration><type>quarter</type></note>
      <note><pitch><step>E</step><octave>4</octave></pitch><duration>2</duration><type>quarter</type></note>
    </measure>
    <measure number="4">
      <note><pitch><step>D</step><octave>4</octave></pitch><duration>4</duration><type>half</type></note>
      <note><pitch><step>A</step><octave>4</octave></pitch><duration>2</duration><type>quarter</type></note>
    </measure>
    <measure number="5">
      <note><pitch><step>A</step><octave>4</octave></pitch><duration>2</duration><type>quarter</type></note>
      <note><pitch><step>F</step><alter>1</alter><octave>4</octave></pitch><duration>2</duration><type>quarter</type></note>
      <note><pitch><step>A</step><octave>4</octave></pitch><duration>2</duration><type>quarter</type></note>
    </measure>
    <measure number="6">
      <note><pitch><step>B</step><octave>4</octave></pitch><duration>4</duration><type>half</type></note>
      <note><pitch><step>D</step><octave>5</octave></pitch><duration>2</duration><type>quarter</type></note>
    </measure>
    <measure number="7">
      <note><pitch><step>C</step><alter>1</alter><octave>5</octave></pitch><duration>2</duration><type>quarter</type></note>
      <note><pitch><step>B</step><octave>4</octave></pitch><duration>2</duration><type>quarter</type></note>
      <note><pitch><step>A</step><octave>4</octave></pitch><duration>2</duration><type>quarter</type></note>
    </measure>
    <measure number="8">
      <note><pitch><step>D</step><octave>5</octave></pitch><duration>4</duration><type>half</type></note>
      <note><rest/><duration>2</duration><type>quarter</type></note>
    </measure>
    <measure number="9">
      <note><pitch><step>F</step><alter>1</alter><octave>5</octave></pitch><duration>2</duration><type>quarter</type></note>
      <note><pitch><step>E</step><octave>5</octave></pitch><duration>2</duration><type>quarter</type></note>
      <note><pitch><step>D</step><octave>5</octave></pitch><duration>2</duration><type>quarter</type></note>
    </measure>
    <measure number="10">
      <note><pitch><step>C</step><alter>1</alter><octave>5</octave></pitch><duration>4</duration><type>half</type></note>
      <note><pitch><step>A</step><octave>4</octave></pitch><duration>2</duration><type>quarter</type></note>
    </measure>
    <measure number="11">
      <note><pitch><step>B</step><octave>4</octave></pitch><duration>2</duration><type>quarter</type></note>
      <note><pitch><step>A</step><octave>4</octave></pitch><duration>2</duration><type>quarter</type></note>
      <note><pitch><step>G</step><octave>4</octave></pitch><duration>2</duration><type>quarter</type></note>
    </measure>
    <measure number="12">
      <note><pitch><step>F</step><alter>1</alter><octave>4</octave></pitch><duration>4</duration><type>half</type></note>
      <note><pitch><step>A</step><octave>4</octave></pitch><duration>2</duration><type>quarter</type></note>
    </measure>
    <measure number="13">
      <note><pitch><step>A</step><octave>4</octave></pitch><duration>2</duration><type>quarter</type></note>
      <note><pitch><step>F</step><alter>1</alter><octave>4</octave></pitch><duration>2</duration><type>quarter</type></note>
      <note><pitch><step>A</step><octave>4</octave></pitch><duration>2</duration><type>quarter</type></note>
    </measure>
    <measure number="14">
      <note><pitch><step>B</step><octave>4</octave></pitch><duration>4</duration><type>half</type></note>
      <note><pitch><step>A</step><octave>4</octave></pitch><duration>2</duration><type>quarter</type></note>
    </measure>
    <measure number="15">
      <note><pitch><step>G</step><octave>4</octave></pitch><duration>2</duration><type>quarter</type></note>
      <note><pitch><step>E</step><octave>4</octave></pitch><duration>2</duration><type>quarter</type></note>
      <note><pitch><step>C</step><alter>1</alter><octave>4</octave></pitch><duration>2</duration><type>quarter</type></note>
    </measure>
    <measure number="16">
      <note><pitch><step>D</step><octave>4</octave></pitch><duration>6</duration><type>half</type><dot/></note>
      <barline location="right"><bar-style>light-heavy</bar-style></barline>
    </measure>
  </part>
</score-partwise>
